<svg width="23" height="24" viewBox="0 0 23 24" fill="none" xmlns="http://www.w3.org/2000/svg">
<path d="M17.5006 6.42677C18.7358 5.19161 20.7381 5.19161 21.9732 6.42677C23.2084 7.66193 23.2084 9.66426 21.9732 10.8994L16.777 16.0957C16.4762 16.3964 16.2684 16.607 16.0338 16.79C15.7702 16.9956 15.4849 17.1716 15.1832 17.3154C14.9146 17.4434 14.6334 17.5355 14.2301 17.6699L11.984 18.419C11.4151 18.6086 10.7879 18.4602 10.3639 18.0361C9.93983 17.6121 9.79143 16.9849 9.98106 16.416L10.7301 14.1699C10.8645 13.7666 10.9566 13.4854 11.0846 13.2168C11.2284 12.9151 11.4044 12.6298 11.61 12.3662C11.793 12.1316 12.0036 11.9238 12.3043 11.6231L17.5006 6.42677ZM13.7184 13.0371C13.3845 13.371 13.277 13.4804 13.1871 13.5957C13.0708 13.7449 12.9706 13.9064 12.8893 14.0772C12.8263 14.2092 12.7769 14.3545 12.6275 14.8027L12.2203 16.0205L12.3785 16.1787L13.5973 15.7725C14.0455 15.6231 14.1908 15.5737 14.3229 15.5108C14.4936 15.4294 14.6552 15.3292 14.8043 15.2129C14.9196 15.123 15.0291 15.0155 15.3629 14.6817L18.9352 11.1084C18.6322 10.9289 18.3156 10.6949 18.0104 10.3897C17.7047 10.084 17.4702 9.7672 17.2906 9.46388L13.7184 13.0371ZM20.8219 9.70411L20.8297 9.70509C20.8297 9.70509 20.8279 9.70427 20.8258 9.70411H20.8219ZM20.5592 7.84083C20.1051 7.38672 19.3688 7.38672 18.9147 7.84083L18.7906 7.96388C18.792 7.96801 18.7931 7.97239 18.7945 7.97657C18.8912 8.25528 19.0745 8.62569 19.4244 8.9756C19.7743 9.3255 20.1447 9.50877 20.4234 9.60548C20.4272 9.60679 20.4314 9.60713 20.4352 9.60841L20.5592 9.48536C21.0133 9.03125 21.0133 8.29494 20.5592 7.84083Z" fill="#999999"/>
<path d="M9.25 12.1C9.80228 12.1 10.25 12.5477 10.25 13.1C10.25 13.6523 9.80228 14.1 9.25 14.1H6.5C5.94772 14.1 5.5 13.6523 5.5 13.1C5.5 12.5477 5.94772 12.1 6.5 12.1H9.25Z" fill="#999999"/>
<path d="M13.6504 7.70001C14.2025 7.70022 14.6504 8.14786 14.6504 8.70001C14.6504 9.25217 14.2025 9.6998 13.6504 9.70001H6.5C5.94772 9.70001 5.5 9.2523 5.5 8.70001C5.5 8.14773 5.94772 7.70001 6.5 7.70001H13.6504Z" fill="#999999"/>
<path d="M8.15039 16.5C8.7025 16.5002 9.15039 16.9478 9.15039 17.5C9.15039 18.0522 8.7025 18.4998 8.15039 18.5H6.5C5.94772 18.5 5.5 18.0523 5.5 17.5C5.5 16.9477 5.94772 16.5 6.5 16.5H8.15039Z" fill="#999999"/>
<path d="M1.35574e-06 14.2002V9.79981C1.2213e-06 7.75405 -0.00218719 6.11911 0.169923 4.83887C0.345923 3.5298 0.720899 2.44317 1.58203 1.58203C2.44317 0.720899 3.5298 0.345923 4.83887 0.169923C6.11911 -0.00218721 7.75405 1.22066e-06 9.79981 1.35576e-06H12C14.0457 1.35576e-06 15.6807 -0.00216666 16.9609 0.169923C18.27 0.345923 19.3576 0.720899 20.2188 1.58203C20.6089 1.97257 20.6091 2.6057 20.2188 2.9961C19.8282 3.38662 19.1942 3.38662 18.8037 2.9961C18.3761 2.56856 17.7815 2.29852 16.6943 2.15235C15.5783 2.00235 14.1022 2 12 2H9.79981C7.69758 2 6.22147 2.00232 5.10547 2.15235C4.01818 2.29853 3.42369 2.5685 2.9961 2.9961C2.5685 3.42369 2.29853 4.01818 2.15235 5.10547C2.00232 6.22147 2 7.69758 2 9.79981V14.2002C2 16.3024 2.00233 17.7785 2.15235 18.8945C2.29853 19.9818 2.5685 20.5763 2.9961 21.0039C3.42369 21.4315 4.01818 21.7015 5.10547 21.8477C6.22147 21.9977 7.69758 22 9.79981 22H12C14.1022 22 15.5783 21.9977 16.6943 21.8477C17.7815 21.7015 18.3761 21.4314 18.8037 21.0039C19.5116 20.2961 19.7505 19.1826 19.791 16.3857C19.799 15.8336 20.2526 15.3925 20.8047 15.4004C21.3568 15.4084 21.7978 15.862 21.79 16.4141C21.7516 19.0719 21.5853 21.0511 20.2188 22.418C19.3576 23.2791 18.27 23.6541 16.9609 23.8301C15.6807 24.0022 14.0457 24 12 24H9.79981C7.75405 24 6.11911 24.0022 4.83887 23.8301C3.5298 23.6541 2.44317 23.2791 1.58203 22.418C0.720899 21.5568 0.345923 20.4702 0.169923 19.1611C-0.00218722 17.8809 1.2213e-06 16.246 1.35574e-06 14.2002Z" fill="#999999"/>
</svg>
