<svg width="20" height="24" viewBox="0 0 20 24" fill="none" xmlns="http://www.w3.org/2000/svg">
<path d="M17.5996 7.59961C17.5996 6.01597 17.598 4.92875 17.4883 4.11231C17.3824 3.32485 17.1931 2.94032 16.9268 2.67383C16.6603 2.40733 16.2751 2.21822 15.4873 2.11231C14.6708 2.00258 13.5837 2 12 2H7.59961C6.68048 2 5.9286 2.00138 5.29981 2.02344V15.4004H17.5996V7.59961ZM5.28711 17.4004C4.20011 17.4004 3.85219 17.4087 3.5918 17.4785C2.86723 17.6728 2.28839 18.2069 2.03125 18.9023C2.04781 19.2719 2.07322 19.597 2.11231 19.8877C2.21822 20.6754 2.40732 21.0597 2.67383 21.3262C2.94033 21.5927 3.32456 21.7818 4.11231 21.8877C4.92875 21.9975 6.01592 22 7.59961 22H12C13.5837 22 14.6708 21.9974 15.4873 21.8877C16.2751 21.7818 16.6603 21.5927 16.9268 21.3262C17.1931 21.0597 17.3824 20.6752 17.4883 19.8877C17.5732 19.2557 17.5927 18.4615 17.5977 17.4004H5.28711ZM2 15.998C2.33156 15.8021 2.69212 15.6493 3.07422 15.5469C3.1476 15.5272 3.22295 15.5099 3.29981 15.4951V2.29492C3.01724 2.39565 2.82613 2.52153 2.67383 2.67383C2.40732 2.94033 2.21822 3.32456 2.11231 4.11231C2.00254 4.92875 2 6.01592 2 7.59961V15.998ZM19.5996 16.4004C19.5996 17.9276 19.6026 19.1736 19.4707 20.1543C19.335 21.1637 19.0407 22.0402 18.3408 22.7402C17.6408 23.4403 16.7634 23.7344 15.7539 23.8701C14.7732 24.0019 13.5272 24 12 24H7.59961C6.07242 24 4.82638 24.002 3.8457 23.8701C2.83621 23.7344 1.95979 23.4403 1.25977 22.7402C0.559741 22.0402 0.265616 21.1638 0.129884 20.1543C0.0873645 19.838 0.060237 19.4941 0.0410173 19.1221C-0.00240378 18.9718 -0.0114123 18.8107 0.0214861 18.6484C0.000741094 17.9808 1.48018e-06 17.2323 1.6766e-06 16.4004V7.59961C1.31516e-06 6.07242 -0.00196362 4.82638 0.129884 3.8457C0.265616 2.83621 0.559741 1.95979 1.25977 1.25977C1.95979 0.559741 2.83621 0.265616 3.8457 0.129884C4.82638 -0.00196362 6.07242 1.31516e-06 7.59961 1.6766e-06H12C13.5272 1.6766e-06 14.7732 -0.00193232 15.7539 0.129884C16.7634 0.265612 17.6408 0.559724 18.3408 1.25977C19.0407 1.95976 19.335 2.83632 19.4707 3.8457C19.6026 4.82638 19.5996 6.07243 19.5996 7.59961V16.4004Z" fill="#999999"/>
</svg>
