<svg width="24" height="21" viewBox="0 0 24 21" fill="none" xmlns="http://www.w3.org/2000/svg">
<path d="M21.999 17.2148C21.9902 16.9289 21.8801 16.6549 21.6875 16.4434C21.6775 16.4323 21.6653 16.42 21.6123 16.3652L19.9883 14.6895H4.01172L2.3877 16.3652C2.33467 16.42 2.32254 16.4323 2.3125 16.4434C2.11987 16.6549 2.00982 16.9289 2.00098 17.2148C2.00052 17.2297 2 17.2472 2 17.3232C2 17.5016 2.00009 17.5454 2.00195 17.5752C2.04006 18.1782 2.52103 18.659 3.12402 18.6973C3.15388 18.6992 3.19756 18.7002 3.37695 18.7002H20.623C20.8024 18.7002 20.8461 18.6992 20.876 18.6973C21.479 18.659 21.9599 18.1782 21.998 17.5752C21.9999 17.5454 22 17.5017 22 17.3232C22 17.2472 21.9995 17.2297 21.999 17.2148ZM19.4121 5.40039C19.4121 4.33503 19.4093 3.63611 19.3398 3.11914C19.2742 2.63132 19.1659 2.45699 19.0605 2.35156C18.9552 2.24618 18.7809 2.13693 18.293 2.07129C17.776 2.00179 17.0771 2 16.0117 2H7.98828C6.92292 2 6.224 2.00179 5.70703 2.07129C5.21913 2.13693 5.04484 2.24618 4.93945 2.35156C4.8341 2.45699 4.72576 2.63132 4.66016 3.11914C4.59065 3.63611 4.58789 4.33503 4.58789 5.40039V12.6895H19.4121V5.40039ZM21.4121 13.2842L23.0488 14.9736C23.0933 15.0196 23.1304 15.0576 23.166 15.0967C23.6796 15.6606 23.9744 16.3899 23.998 17.1523C23.9997 17.2054 24 17.259 24 17.3232C24 17.4721 24 17.5934 23.9932 17.7022C23.8914 19.3103 22.6101 20.5917 21.002 20.6934C20.8932 20.7002 20.7719 20.7002 20.623 20.7002H3.37695C3.2281 20.7002 3.10678 20.7002 2.99805 20.6934C1.38989 20.5917 0.108638 19.3103 0.00683594 17.7022C-3.41502e-05 17.5934 3.31015e-09 17.4721 3.31015e-09 17.3232C-3.28366e-09 17.259 0.000313036 17.2054 0.00195313 17.1523C0.0256315 16.39 0.320407 15.6606 0.833984 15.0967C0.869588 15.0576 0.906669 15.0196 0.951172 14.9736L2.58789 13.2842V5.40039C2.58789 4.39157 2.58615 3.53375 2.67773 2.85254C2.77319 2.14272 2.98662 1.47637 3.52539 0.937502C4.06434 0.398551 4.73143 0.1853 5.44141 0.0898459C6.12256 -0.00169173 6.97964 2.15749e-06 7.98828 2.15749e-06H16.0117C17.0204 2.15749e-06 17.8774 -0.00169128 18.5586 0.0898459C19.2686 0.1853 19.9357 0.398551 20.4746 0.937502C21.0134 1.47637 21.2268 2.14272 21.3223 2.85254C21.4139 3.53375 21.4121 4.39157 21.4121 5.40039V13.2842Z" fill="#999999"/>
<path d="M14.75 15.95C15.3023 15.95 15.75 16.3977 15.75 16.95C15.75 17.5023 15.3023 17.95 14.75 17.95H9.25C8.69772 17.95 8.25 17.5023 8.25 16.95C8.25 16.3977 8.69772 15.95 9.25 15.95H14.75Z" fill="#999999"/>
<path d="M12.825 4.025C12.825 4.48064 12.4556 4.85 12 4.85C11.5444 4.85 11.175 4.48064 11.175 4.025C11.175 3.56937 11.5444 3.2 12 3.2C12.4556 3.2 12.825 3.56937 12.825 4.025Z" fill="#999999"/>
</svg>
