<svg width="24" height="21" viewBox="0 0 24 21" fill="none" xmlns="http://www.w3.org/2000/svg">
<path d="M14 18.1396C14 16.2396 12.6458 14.6428 10.8359 14.3486L10.6279 14.3154C8.88703 14.0326 7.11297 14.0326 5.37207 14.3154L5.16406 14.3486C3.35417 14.6428 2 16.2396 2 18.1396C2.00022 18.6316 2.3875 19 2.82812 19H13.1719C13.6125 19 13.9998 18.6316 14 18.1396ZM11.083 5.15625C11.083 3.39634 9.68626 2 8 2C6.31373 2 4.91699 3.39634 4.91699 5.15625C4.91699 6.91616 6.31373 8.3125 8 8.3125C9.68626 8.3125 11.083 6.91616 11.083 5.15625ZM16 18.1396C15.9998 19.7027 14.7503 21 13.1719 21H2.82812C1.24972 21 0.000224613 19.7027 0 18.1396C0 15.2845 2.04037 12.8304 4.84375 12.375L5.05176 12.3408C7.00487 12.0236 8.99513 12.0236 10.9482 12.3408L11.1562 12.375C13.9596 12.8304 16 15.2845 16 18.1396ZM13.083 5.15625C13.083 7.98721 10.8241 10.3125 8 10.3125C5.17594 10.3125 2.91699 7.98721 2.91699 5.15625C2.91699 2.32529 5.17594 0 8 0C10.8241 0 13.083 2.32529 13.083 5.15625Z" fill="#999999"/>
<path d="M22 18.1396C22 16.3441 20.5146 14.6687 18.2832 14.3516L18.1152 14.3281H16.6553C16.1031 14.3281 15.6554 13.8803 15.6553 13.3281C15.6553 12.7758 16.103 12.3281 16.6553 12.3281H18.2568L18.3271 12.3379L18.5645 12.3721C21.6055 12.8043 24 15.18 24 18.1396C23.9998 19.825 22.505 20.9998 20.9111 21H18.1865C17.6342 21 17.1865 20.5523 17.1865 20C17.1865 19.4477 17.6342 19 18.1865 19H20.9111C21.6242 18.9998 21.9997 18.5092 22 18.1396ZM18.667 5.15625C18.667 3.51886 17.1371 2 15 2C14.4477 2 14 1.55228 14 1C14 0.447715 14.4477 0 15 0C18.0176 0 20.667 2.20278 20.667 5.15625C20.667 8.10972 18.0176 10.3125 15 10.3125C14.4477 10.3125 14 9.86479 14 9.3125C14 8.76022 14.4477 8.3125 15 8.3125C17.1371 8.3125 18.667 6.79364 18.667 5.15625Z" fill="#999999"/>
</svg>
