<?xml version="1.0" encoding="utf-8"?>
<!-- Generator: Adobe Illustrator 25.4.1, SVG Export Plug-In . SVG Version: 6.00 Build 0)  -->
<svg version="1.1" id="Layer_1" xmlns="http://www.w3.org/2000/svg" xmlns:xlink="http://www.w3.org/1999/xlink" x="0px" y="0px"
	 width="232px" height="36px" viewBox="0 0 232 36" style="enable-background:new 0 0 232 36;" xml:space="preserve">
<style type="text/css">
	.st0{fill:#231916;}
	.st1{fill:#FBC600;}
</style>
<g>
	<g>
		<path class="st0" d="M127.3,22.1c0.5,1.6,1.7,2.5,3.1,2.5c1.3,0,2.3-0.5,2.7-1.1h3.8c-0.6,2.6-2.8,4.6-6.6,4.6
			c-4.1,0-6.8-3.5-6.8-7.5c0-4.2,2.6-7.4,6.7-7.4c3.9,0,6.6,2.9,6.6,7.1c0,0.5-0.1,1.6-0.1,1.9H127.3z M133.1,18.9
			c-0.3-1.3-1.2-2.4-3-2.4c-1.8,0-2.7,1-3,2.4H133.1z"/>
		<path class="st0" d="M137.9,22.1v-3.7h7.5v3.7H137.9z"/>
		<path class="st0" d="M147.2,9.3h4.1v14.9h7.2v3.5h-11.3V9.3z"/>
		<path class="st0" d="M165,12.3h-3.6v-3h3.6V12.3z M161.3,14.4h3.6v13.3h-3.6V14.4z"/>
		<path class="st0" d="M168.6,27.7v-19h3.5v5.9c0.6-0.7,1.8-1.5,3.2-1.5c3.6,0,6.5,3.1,6.5,7.4c0,4.1-2.5,7.4-6.5,7.4
			c-1.1,0-2.6-0.6-3.3-1.7v1.3H168.6z M175.2,24.5c1.8,0,3.1-1.8,3.1-4c0-2.1-1.1-4-3.1-4c-2.1,0-3.1,2-3.1,3.9
			C172.1,23,173.7,24.5,175.2,24.5z"/>
		<path class="st0" d="M184.4,27.7V12.7h3.4v1.5c1-1.2,2.4-1.8,4.3-1.8v3.9c-3,0-4.2,1.3-4.2,3.3v8.1H184.4z"/>
		<path class="st0" d="M206.3,24c0,1.4,0.1,2.7,0.2,3.6h-3.4l-0.3-1.7h-0.1c-0.9,1.2-2.5,2-4.5,2c-3,0-4.7-2.2-4.7-4.5
			c0-3.8,3.4-5.7,9-5.7v-0.2c0-1-0.4-2.6-3.1-2.6c-1.5,0-3,0.5-4.1,1.1l-0.7-2.5c1.1-0.7,3.1-1.3,5.5-1.3c4.8,0,6.2,3.1,6.2,6.4V24z
			 M202.6,20.3c-2.7,0-5.3,0.5-5.3,2.8c0,1.5,1,2.2,2.2,2.2c1.6,0,2.6-1,3-2.1c0.1-0.3,0.1-0.6,0.1-0.8V20.3z"/>
		<path class="st0" d="M209.5,27.7V12.7h3.4v1.5c1-1.2,2.4-1.8,4.3-1.8v3.9c-3,0-4.2,1.3-4.2,3.3v8.1H209.5z"/>
		<path class="st0" d="M221.7,12.3l2.4,7.1c0.3,0.8,0.6,1.8,0.8,2.5h0.1c0.2-0.7,0.4-1.7,0.7-2.6l2.1-7h3.6l-3.3,9
			c-1.8,4.9-3,7.1-4.6,8.5c-1.3,1.1-2.7,1.6-3.5,1.7l-0.8-2.8c0.6-0.1,1.2-0.4,1.9-0.9c0.7-0.4,1.4-1.2,1.8-2.1
			c0.1-0.2,0.2-0.4,0.2-0.6c0-0.1,0-0.3-0.2-0.7L218,12.3H221.7z"/>
	</g>
	<g>
		<path class="st1" d="M2.7,18c0-8.4,6.8-15.2,15.2-15.2c8.4,0,15.2,6.8,15.2,15.2c0,8.4-6.8,15.2-15.2,15.2
			C9.5,33.2,2.7,26.4,2.7,18z"/>
		<path class="st0" d="M18,0C8.1,0,0,8.1,0,18c0,9.9,8.1,18,18,18c9.9,0,18-8.1,18-18C36,8.1,27.9,0,18,0z M18,32.9
			C9.8,32.9,3.1,26.2,3.1,18C3.1,9.8,9.8,3.1,18,3.1c8.2,0,14.9,6.7,14.9,14.9C32.9,26.2,26.2,32.9,18,32.9z"/>
		<path class="st0" d="M49.6,27.8h-3.7V16.4h-2v-2.6h2v-1.1c0-2.9,1.6-4,4.1-4c1.1,0,1.6,0,1.9,0.1v3h-1c-1.3,0-1.3,0.4-1.3,1.6v0.5
			H52v2.6h-2.4V27.8z"/>
		<path class="st0" d="M66.7,27.8h-3.5v-2h-0.1c-0.8,1.5-2.3,2.3-4.3,2.3c-2.8,0-4.8-1.6-4.8-5.2v-9.2h3.7v8.7
			c0,2.2,1.3,2.6,2.4,2.6c1.2,0,2.8-0.7,2.8-3.2v-8.1h3.7V27.8z"/>
		<path class="st0" d="M74.3,13.8h2.3v2.6h-2.3v7.6c0,0.8,0,1.1,1.5,1.1c0.2,0,0.5,0,0.8-0.1v2.8C76,28,75.4,28,74.9,28h-0.5
			c-3.2,0-3.8-1.2-3.8-3v-8.5h-1.9v-2.6h1.9V10h3.7V13.8z"/>
		<path class="st0" d="M91.6,27.8h-3.5v-2H88c-0.8,1.5-2.3,2.3-4.3,2.3C81,28.2,79,26.6,79,23v-9.2h3.7v8.7c0,2.2,1.3,2.6,2.4,2.6
			c1.2,0,2.8-0.7,2.8-3.2v-8.1h3.7V27.8z"/>
		<path class="st0" d="M95,13.8h3.5v2.4h0c0.8-1.4,1.6-2.8,3.8-2.8c0.2,0,0.5,0,0.7,0.1v3.7c-0.3-0.1-0.7-0.1-1.1-0.1
			c-2.9,0-3.4,1.8-3.4,3.3v7.3H95V13.8z"/>
		<path class="st0" d="M108,19.4c0.2-1.8,1.1-3,2.9-3c1.2,0,2.6,0.7,2.8,3H108z M113.5,23.7c-0.3,1-1.3,1.5-2.4,1.5
			c-3,0-3.2-2.4-3.3-3.4h9.6v-0.7c0-6.4-3.8-7.7-6.6-7.7c-6.1,0-6.7,5.4-6.7,7.1c0,5.8,3,7.7,7,7.7c2.4,0,5.2-1.1,6.2-4.5H113.5z"/>
		<path class="st0" d="M38.5,18c0,2.1-1.7,3.8-3.9,3.8c-2.1,0-3.8-1.7-3.8-3.8c0-2.1,1.7-3.8,3.8-3.8C36.7,14.1,38.5,15.8,38.5,18z"
			/>
		<path class="st0" d="M17,9.9c-1.3,0.5-2.5,1.1-3.6,2c-1.1,0.9-2,1.9-2.7,3.2c-0.7,1.3-1.1,2.8-1.1,4.4c0,1,0.2,1.9,0.5,2.7
			c0.3,0.8,0.8,1.6,1.4,2.3c0.6,0.6,1.3,1.2,2.2,1.5c0.9,0.3,1.8,0.5,2.9,0.5c1.5,0,2.8-0.2,4-0.6c1.1-0.4,2.1-0.8,3-1.4
			c0.8-0.5,1.5-1,1.9-1.5c0.7-0.7,0.8-1.1,0.8-1.3c0-0.3,0-0.5-0.3-0.8c-0.2-0.2-0.5-0.4-0.7-0.4c-0.2,0-0.5-0.1-0.8,0.3
			c-0.2,0.2,0,0,0,0c0,0-0.4,0.4-0.4,0.4c-0.7,0.8-1.5,1.4-2.3,1.8c-0.8,0.4-1.6,0.8-2.3,1c-0.7,0.2-1.3,0.3-1.8,0.4
			c0,0-1,0.1-1,0.1c-0.6,0-1.1-0.1-1.5-0.4c-0.4-0.3-0.6-0.6-0.8-0.9c-0.2-0.4-0.3-0.7-0.4-1.1c0,0-0.1-1-0.1-1l0.1-1.1
			c0-0.4,0.2-1.1,0.4-1.8c0.6,0,1.6,0,1.6,0l1.2,0c0,0,1.6-0.1,1.6-0.1c0,0,1.8-0.2,1.8-0.2c0.6-0.1,1.2-0.3,1.7-0.5
			c0.8-0.3,1.4-0.6,1.9-1.1c0.5-0.4,0.8-0.9,1-1.3c0.2-0.5,0.4-0.9,0.5-1.2l0.1-0.7c0-1-0.5-1.9-1.3-2.6c-0.9-0.7-2.1-1.1-3.6-1.1
			C19.6,9.2,18.3,9.5,17,9.9z M18,12.2c0.6-0.4,1.2-0.6,1.6-0.7c0,0,1.2-0.1,1.2-0.1c0.8,0,1.3,0.2,1.7,0.5c0.4,0.3,0.5,0.6,0.5,1
			c0,0.5-0.1,0.8-0.3,1.1c-0.3,0.3-0.6,0.6-1,0.8c-0.5,0.2-1,0.4-1.5,0.5l-1.7,0.3c0,0-1.6,0.1-1.6,0.1l-0.4,0l-0.8,0
			c0,0-0.3,0-0.6,0c0.3-0.8,0.7-1.5,1.1-2C16.8,13.1,17.4,12.6,18,12.2z"/>
	</g>
</g>
</svg>
