<svg width="34" height="32" viewBox="0 0 34 32" fill="none" xmlns="http://www.w3.org/2000/svg">
<path d="M11.7452 1.39266C11.5758 1.11028 11.2706 0.9375 10.9413 0.9375H1.87789C1.14918 0.9375 0.699074 1.73247 1.07399 2.35734L11.199 19.2323C11.3684 19.5147 11.6736 19.6875 12.0029 19.6875H21.0663C21.795 19.6875 22.2451 18.8925 21.8702 18.2677L11.7452 1.39266Z" fill="#C52229"/>
<path fill-rule="evenodd" clip-rule="evenodd" d="M10.9413 0H1.87789C0.420467 0 -0.479744 1.58995 0.270096 2.83968L10.3951 19.7147C10.734 20.2794 11.3443 20.625 12.0029 20.625H21.0663C22.5237 20.625 23.4239 19.0351 22.6741 17.7853L12.5491 0.910321C12.2102 0.345562 11.5999 0 10.9413 0ZM10.9413 0.9375C11.2706 0.9375 11.5758 1.11028 11.7452 1.39266L21.8702 18.2677C22.2451 18.8925 21.795 19.6875 21.0663 19.6875H12.0029C11.6736 19.6875 11.3684 19.5147 11.199 19.2323L1.07399 2.35734C0.699076 1.73247 1.14918 0.9375 1.87789 0.9375H10.9413Z" fill="#9B0F15"/>
<path d="M21.5115 1.39266C21.6809 1.11028 21.9861 0.9375 22.3154 0.9375H31.3788C32.1075 0.9375 32.5576 1.73247 32.1827 2.35734L22.0577 19.2323C21.8883 19.5147 21.5831 19.6875 21.2538 19.6875H12.1904C11.4617 19.6875 11.0116 18.8925 11.3865 18.2677L21.5115 1.39266Z" fill="#F1333B"/>
<path fill-rule="evenodd" clip-rule="evenodd" d="M22.3154 0H31.3788C32.8362 0 33.7364 1.58995 32.9866 2.83968L22.8616 19.7147C22.5227 20.2794 21.9124 20.625 21.2538 20.625H12.1904C10.733 20.625 9.83276 19.0351 10.5826 17.7853L20.7076 0.910321C21.0465 0.345562 21.6568 0 22.3154 0ZM22.3154 0.9375C21.9861 0.9375 21.6809 1.11028 21.5115 1.39266L11.3865 18.2677C11.0116 18.8925 11.4617 19.6875 12.1904 19.6875H21.2538C21.5831 19.6875 21.8883 19.5147 22.0577 19.2323L32.1827 2.35734C32.5576 1.73247 32.1075 0.9375 31.3788 0.9375H22.3154Z" fill="#9B0F15"/>
<path fill-rule="evenodd" clip-rule="evenodd" d="M22.4887 1.46971C22.7126 1.5997 22.7887 1.88657 22.6587 2.11045L18.44 9.37608C18.31 9.59996 18.0231 9.67607 17.7992 9.54607C17.5753 9.41608 17.4992 9.12921 17.6292 8.90533L21.848 1.6397C21.978 1.41582 22.2648 1.33971 22.4887 1.46971Z" fill="#FE666D"/>
<path fill-rule="evenodd" clip-rule="evenodd" d="M1.86171 1.46971C1.63784 1.5997 1.56173 1.88657 1.69172 2.11045L5.91047 9.37608C6.04047 9.59996 6.32734 9.67607 6.55122 9.54607C6.7751 9.41608 6.85121 9.12921 6.72121 8.90533L2.50246 1.6397C2.37247 1.41582 2.08559 1.33971 1.86171 1.46971Z" fill="#DF3840"/>
<path d="M10.769 2.47559C10.769 2.80728 10.5066 3.07617 10.183 3.07617C9.85942 3.07617 9.59709 2.80728 9.59709 2.47559C9.59709 2.14389 9.85942 1.875 10.183 1.875C10.5066 1.875 10.769 2.14389 10.769 2.47559Z" fill="#AA161D"/>
<path d="M8.71104 2.62207C8.71104 3.03467 8.38472 3.36914 7.98219 3.36914C7.57966 3.36914 7.25334 3.03467 7.25334 2.62207C7.25334 2.20947 7.57966 1.875 7.98219 1.875C8.38472 1.875 8.71104 2.20947 8.71104 2.62207Z" fill="#AA161D"/>
<path d="M10.5346 4.76074C10.5346 5.17334 10.2083 5.50781 9.80574 5.50781C9.40321 5.50781 9.07689 5.17334 9.07689 4.76074C9.07689 4.34815 9.40321 4.01367 9.80574 4.01367C10.2083 4.01367 10.5346 4.34815 10.5346 4.76074Z" fill="#AA161D"/>
<path d="M12.2009 3.74268C12.2009 3.94897 12.0378 4.11621 11.8365 4.11621C11.6353 4.11621 11.4721 3.94897 11.4721 3.74268C11.4721 3.53638 11.6353 3.36914 11.8365 3.36914C12.0378 3.36914 12.2009 3.53638 12.2009 3.74268Z" fill="#AA161D"/>
<path d="M8.3466 4.38721C8.3466 4.5935 8.18344 4.76074 7.98218 4.76074C7.78091 4.76074 7.61775 4.5935 7.61775 4.38721C7.61775 4.18091 7.78091 4.01367 7.98218 4.01367C8.18344 4.01367 8.3466 4.18091 8.3466 4.38721Z" fill="#AA161D"/>
<path d="M6.31584 2.10205C6.31584 2.30835 6.15268 2.47559 5.95142 2.47559C5.75015 2.47559 5.58699 2.30835 5.58699 2.10205C5.58699 1.89575 5.75015 1.72852 5.95142 1.72852C6.15268 1.72852 6.31584 1.89575 6.31584 2.10205Z" fill="#AA161D"/>
<path d="M11.8365 6.3501C11.8365 6.5564 11.6734 6.72363 11.4721 6.72363C11.2708 6.72363 11.1077 6.5564 11.1077 6.3501C11.1077 6.1438 11.2708 5.97656 11.4721 5.97656C11.6734 5.97656 11.8365 6.1438 11.8365 6.3501Z" fill="#AA161D"/>
<path d="M9.96152 6.72363C9.96152 6.92993 9.79836 7.09717 9.59709 7.09717C9.39582 7.09717 9.23267 6.92993 9.23267 6.72363C9.23267 6.51734 9.39582 6.3501 9.59709 6.3501C9.79836 6.3501 9.96152 6.51734 9.96152 6.72363Z" fill="#AA161D"/>
<path d="M13.5958 5.36865C13.5958 5.70439 13.3302 5.97656 13.0027 5.97656C12.6751 5.97656 12.4096 5.70439 12.4096 5.36865C12.4096 5.03291 12.6751 4.76074 13.0027 4.76074C13.3302 4.76074 13.5958 5.03291 13.5958 5.36865Z" fill="#AA161D"/>
<path d="M14.3689 7.09717C14.3689 7.30347 14.2058 7.4707 14.0045 7.4707C13.8032 7.4707 13.6401 7.30347 13.6401 7.09717C13.6401 6.89087 13.8032 6.72363 14.0045 6.72363C14.2058 6.72363 14.3689 6.89087 14.3689 7.09717Z" fill="#AA161D"/>
<path d="M29.2846 18.2812C29.2846 25.2711 23.6182 30.9375 16.6283 30.9375C9.63849 30.9375 3.97209 25.2711 3.97209 18.2812C3.97209 11.2914 9.63849 5.625 16.6283 5.625C23.6182 5.625 29.2846 11.2914 29.2846 18.2812Z" fill="#DCA16A"/>
<path fill-rule="evenodd" clip-rule="evenodd" d="M30.2221 18.2812C30.2221 25.7889 24.136 31.875 16.6283 31.875C9.12072 31.875 3.03459 25.7889 3.03459 18.2812C3.03459 10.7736 9.12072 4.6875 16.6283 4.6875C24.136 4.6875 30.2221 10.7736 30.2221 18.2812ZM16.6283 30.9375C23.6182 30.9375 29.2846 25.2711 29.2846 18.2812C29.2846 11.2914 23.6182 5.625 16.6283 5.625C9.63849 5.625 3.97209 11.2914 3.97209 18.2812C3.97209 25.2711 9.63849 30.9375 16.6283 30.9375Z" fill="#C38144"/>
<path fill-rule="evenodd" clip-rule="evenodd" d="M4.90959 18.75C4.65071 18.75 4.44084 18.5401 4.44084 18.2812C4.44084 11.5503 9.89737 6.09375 16.6283 6.09375C16.8872 6.09375 17.0971 6.30362 17.0971 6.5625C17.0971 6.82138 16.8872 7.03125 16.6283 7.03125C10.4151 7.03125 5.37834 12.068 5.37834 18.2812C5.37834 18.5401 5.16848 18.75 4.90959 18.75Z" fill="#F0B57F"/>
<path fill-rule="evenodd" clip-rule="evenodd" d="M28.3471 17.8125C28.606 17.8125 28.8158 18.0224 28.8158 18.2812C28.8158 25.0122 23.3593 30.4688 16.6283 30.4688C16.3695 30.4688 16.1596 30.2589 16.1596 30C16.1596 29.7411 16.3695 29.5312 16.6283 29.5312C22.8415 29.5312 27.8783 24.4945 27.8783 18.2812C27.8783 18.0224 28.0882 17.8125 28.3471 17.8125Z" fill="#CF945D"/>
<path d="M26.0033 18.2812C26.0033 23.4589 21.806 27.6562 16.6283 27.6562C11.4507 27.6562 7.25334 23.4589 7.25334 18.2812C7.25334 13.1036 11.4507 8.90625 16.6283 8.90625C21.806 8.90625 26.0033 13.1036 26.0033 18.2812Z" fill="#F7BA82"/>
<path fill-rule="evenodd" clip-rule="evenodd" d="M26.9408 18.2812C26.9408 23.9767 22.3238 28.5938 16.6283 28.5938C10.9329 28.5938 6.31584 23.9767 6.31584 18.2812C6.31584 12.5858 10.9329 7.96875 16.6283 7.96875C22.3238 7.96875 26.9408 12.5858 26.9408 18.2812ZM16.6283 27.6562C21.806 27.6562 26.0033 23.4589 26.0033 18.2812C26.0033 13.1036 21.806 8.90625 16.6283 8.90625C11.4507 8.90625 7.25334 13.1036 7.25334 18.2812C7.25334 23.4589 11.4507 27.6562 16.6283 27.6562Z" fill="#C38144"/>
<path fill-rule="evenodd" clip-rule="evenodd" d="M16.6283 26.25C21.0294 26.25 24.5971 22.6823 24.5971 18.2812C24.5971 18.0224 24.807 17.8125 25.0658 17.8125C25.3247 17.8125 25.5346 18.0224 25.5346 18.2812C25.5346 23.2 21.5471 27.1875 16.6283 27.1875C16.3695 27.1875 16.1596 26.9776 16.1596 26.7187C16.1596 26.4599 16.3695 26.25 16.6283 26.25Z" fill="#E6A66C"/>
<path fill-rule="evenodd" clip-rule="evenodd" d="M16.6283 10.3125C12.2273 10.3125 8.65959 13.8802 8.65959 18.2812C8.65959 18.5401 8.44973 18.75 8.19084 18.75C7.93196 18.75 7.72209 18.5401 7.72209 18.2812C7.72209 13.3625 11.7096 9.375 16.6283 9.375C16.8872 9.375 17.0971 9.58487 17.0971 9.84375C17.0971 10.1026 16.8872 10.3125 16.6283 10.3125Z" fill="#FFD5AE"/>
<path d="M18.762 18.7015C19.2193 18.9628 19.5927 19.3222 19.882 19.7795C20.1713 20.2275 20.316 20.6708 20.316 21.1095C20.316 21.6788 20.162 22.1922 19.854 22.6495C19.5553 23.0975 19.1307 23.4475 18.58 23.6995C18.0387 23.9515 17.4227 24.0775 16.732 24.0775C16.0413 24.0775 15.4207 23.9468 14.87 23.6855C14.3287 23.4148 13.904 23.0462 13.596 22.5795C13.2973 22.1035 13.148 21.5622 13.148 20.9555H14.954C14.954 21.4035 15.1173 21.7722 15.444 22.0615C15.78 22.3415 16.2093 22.4815 16.732 22.4815C17.2733 22.4815 17.7167 22.3415 18.062 22.0615C18.4073 21.7722 18.58 21.4035 18.58 20.9555C18.58 20.5168 18.4073 20.1575 18.062 19.8775C17.726 19.5882 17.292 19.4435 16.76 19.4435H16.046V17.9735H16.774C17.2593 17.9735 17.656 17.8475 17.964 17.5955C18.272 17.3342 18.426 17.0028 18.426 16.6015C18.426 16.2095 18.2767 15.8922 17.978 15.6495C17.6793 15.3975 17.2967 15.2715 16.83 15.2715C16.3727 15.2715 15.9993 15.3975 15.71 15.6495C15.4207 15.9015 15.276 16.2235 15.276 16.6155H13.47C13.47 16.0462 13.61 15.5375 13.89 15.0895C14.1793 14.6415 14.576 14.2962 15.08 14.0535C15.5933 13.8015 16.1767 13.6755 16.83 13.6755C17.474 13.6755 18.048 13.7968 18.552 14.0395C19.056 14.2728 19.448 14.5995 19.728 15.0195C20.008 15.4395 20.148 15.9202 20.148 16.4615C20.148 16.8628 20.0173 17.2735 19.756 17.6935C19.504 18.1135 19.1727 18.4495 18.762 18.7015Z" fill="#9D6838"/>
</svg>
