<svg width="34" height="32" viewBox="0 0 34 32" fill="none" xmlns="http://www.w3.org/2000/svg">
<path d="M11.7452 1.39266C11.5758 1.11028 11.2706 0.9375 10.9413 0.9375H1.87791C1.14919 0.9375 0.699089 1.73247 1.07401 2.35734L11.199 19.2323C11.3684 19.5147 11.6736 19.6875 12.0029 19.6875H21.0663C21.795 19.6875 22.2451 18.8925 21.8702 18.2677L11.7452 1.39266Z" fill="#C52229"/>
<path fill-rule="evenodd" clip-rule="evenodd" d="M10.9413 0H1.87789C0.420467 0 -0.479744 1.58995 0.270096 2.83968L10.3951 19.7147C10.734 20.2794 11.3443 20.625 12.0029 20.625H21.0663C22.5237 20.625 23.4239 19.0351 22.6741 17.7853L12.5491 0.910321C12.2102 0.345562 11.5999 0 10.9413 0ZM10.9413 0.9375C11.2706 0.9375 11.5758 1.11028 11.7452 1.39266L21.8702 18.2677C22.2451 18.8925 21.795 19.6875 21.0663 19.6875H12.0029C11.6736 19.6875 11.3684 19.5147 11.199 19.2323L1.07399 2.35734C0.699076 1.73247 1.14918 0.9375 1.87789 0.9375H10.9413Z" fill="#9B0F15"/>
<path d="M21.5115 1.39266C21.6809 1.11028 21.9861 0.9375 22.3154 0.9375H31.3788C32.1075 0.9375 32.5576 1.73247 32.1827 2.35734L22.0577 19.2323C21.8882 19.5147 21.5831 19.6875 21.2538 19.6875H12.1904C11.4617 19.6875 11.0116 18.8925 11.3865 18.2677L21.5115 1.39266Z" fill="#F1333B"/>
<path fill-rule="evenodd" clip-rule="evenodd" d="M22.3154 0H31.3788C32.8362 0 33.7364 1.58995 32.9866 2.83968L22.8616 19.7147C22.5227 20.2794 21.9124 20.625 21.2538 20.625H12.1904C10.733 20.625 9.83276 19.0351 10.5826 17.7853L20.7076 0.910321C21.0465 0.345562 21.6568 0 22.3154 0ZM22.3154 0.9375C21.9861 0.9375 21.6809 1.11028 21.5115 1.39266L11.3865 18.2677C11.0116 18.8925 11.4617 19.6875 12.1904 19.6875H21.2538C21.5831 19.6875 21.8883 19.5147 22.0577 19.2323L32.1827 2.35734C32.5576 1.73247 32.1075 0.9375 31.3788 0.9375H22.3154Z" fill="#9B0F15"/>
<path fill-rule="evenodd" clip-rule="evenodd" d="M22.4887 1.46971C22.7126 1.5997 22.7887 1.88657 22.6587 2.11045L18.44 9.37608C18.31 9.59996 18.0231 9.67607 17.7992 9.54607C17.5754 9.41608 17.4993 9.12921 17.6293 8.90533L21.848 1.6397C21.978 1.41582 22.2649 1.33971 22.4887 1.46971Z" fill="#FE666D"/>
<path fill-rule="evenodd" clip-rule="evenodd" d="M1.86175 1.46971C1.63787 1.5997 1.56176 1.88657 1.69175 2.11045L5.9105 9.37608C6.0405 9.59996 6.32737 9.67607 6.55125 9.54607C6.77513 9.41608 6.85124 9.12921 6.72124 8.90533L2.50249 1.6397C2.3725 1.41582 2.08563 1.33971 1.86175 1.46971Z" fill="#DF3840"/>
<path d="M10.769 2.47559C10.769 2.80728 10.5066 3.07617 10.183 3.07617C9.85944 3.07617 9.59711 2.80728 9.59711 2.47559C9.59711 2.14389 9.85944 1.875 10.183 1.875C10.5066 1.875 10.769 2.14389 10.769 2.47559Z" fill="#AA161D"/>
<path d="M8.71106 2.62207C8.71106 3.03467 8.38474 3.36914 7.98221 3.36914C7.57967 3.36914 7.25336 3.03467 7.25336 2.62207C7.25336 2.20947 7.57967 1.875 7.98221 1.875C8.38474 1.875 8.71106 2.20947 8.71106 2.62207Z" fill="#AA161D"/>
<path d="M10.5346 4.76074C10.5346 5.17334 10.2083 5.50781 9.80575 5.50781C9.40322 5.50781 9.0769 5.17334 9.0769 4.76074C9.0769 4.34815 9.40322 4.01367 9.80575 4.01367C10.2083 4.01367 10.5346 4.34815 10.5346 4.76074Z" fill="#AA161D"/>
<path d="M12.201 3.74268C12.201 3.94897 12.0378 4.11621 11.8365 4.11621C11.6353 4.11621 11.4721 3.94897 11.4721 3.74268C11.4721 3.53638 11.6353 3.36914 11.8365 3.36914C12.0378 3.36914 12.201 3.53638 12.201 3.74268Z" fill="#AA161D"/>
<path d="M8.34662 4.38721C8.34662 4.5935 8.18346 4.76074 7.98219 4.76074C7.78093 4.76074 7.61777 4.5935 7.61777 4.38721C7.61777 4.18091 7.78093 4.01367 7.98219 4.01367C8.18346 4.01367 8.34662 4.18091 8.34662 4.38721Z" fill="#AA161D"/>
<path d="M6.31585 2.10205C6.31585 2.30835 6.1527 2.47559 5.95143 2.47559C5.75016 2.47559 5.58701 2.30835 5.58701 2.10205C5.58701 1.89575 5.75016 1.72852 5.95143 1.72852C6.1527 1.72852 6.31585 1.89575 6.31585 2.10205Z" fill="#AA161D"/>
<path d="M11.8365 6.3501C11.8365 6.5564 11.6734 6.72363 11.4721 6.72363C11.2708 6.72363 11.1077 6.5564 11.1077 6.3501C11.1077 6.1438 11.2708 5.97656 11.4721 5.97656C11.6734 5.97656 11.8365 6.1438 11.8365 6.3501Z" fill="#AA161D"/>
<path d="M9.96152 6.72363C9.96152 6.92993 9.79836 7.09717 9.59709 7.09717C9.39582 7.09717 9.23267 6.92993 9.23267 6.72363C9.23267 6.51734 9.39582 6.3501 9.59709 6.3501C9.79836 6.3501 9.96152 6.51734 9.96152 6.72363Z" fill="#AA161D"/>
<path d="M13.5958 5.36865C13.5958 5.70439 13.3302 5.97656 13.0027 5.97656C12.6751 5.97656 12.4096 5.70439 12.4096 5.36865C12.4096 5.03291 12.6751 4.76074 13.0027 4.76074C13.3302 4.76074 13.5958 5.03291 13.5958 5.36865Z" fill="#AA161D"/>
<path d="M14.3689 7.09717C14.3689 7.30347 14.2058 7.4707 14.0045 7.4707C13.8032 7.4707 13.6401 7.30347 13.6401 7.09717C13.6401 6.89087 13.8032 6.72363 14.0045 6.72363C14.2058 6.72363 14.3689 6.89087 14.3689 7.09717Z" fill="#AA161D"/>
<path d="M29.2846 18.2812C29.2846 25.2711 23.6182 30.9375 16.6284 30.9375C9.6385 30.9375 3.97211 25.2711 3.97211 18.2812C3.97211 11.2914 9.6385 5.625 16.6284 5.625C23.6182 5.625 29.2846 11.2914 29.2846 18.2812Z" fill="#BCCCD2"/>
<path fill-rule="evenodd" clip-rule="evenodd" d="M30.2221 18.2812C30.2221 25.7889 24.136 31.875 16.6284 31.875C9.12074 31.875 3.03461 25.7889 3.03461 18.2812C3.03461 10.7736 9.12074 4.6875 16.6284 4.6875C24.136 4.6875 30.2221 10.7736 30.2221 18.2812ZM16.6284 30.9375C23.6182 30.9375 29.2846 25.2711 29.2846 18.2812C29.2846 11.2914 23.6182 5.625 16.6284 5.625C9.6385 5.625 3.97211 11.2914 3.97211 18.2812C3.97211 25.2711 9.6385 30.9375 16.6284 30.9375Z" fill="#81A5B0"/>
<path fill-rule="evenodd" clip-rule="evenodd" d="M4.90961 18.75C4.65072 18.75 4.44086 18.5401 4.44086 18.2812C4.44086 11.5503 9.89739 6.09375 16.6284 6.09375C16.8872 6.09375 17.0971 6.30362 17.0971 6.5625C17.0971 6.82138 16.8872 7.03125 16.6284 7.03125C10.4152 7.03125 5.37836 12.068 5.37836 18.2812C5.37836 18.5401 5.16849 18.75 4.90961 18.75Z" fill="#D0DEE3"/>
<path fill-rule="evenodd" clip-rule="evenodd" d="M28.3471 17.8125C28.606 17.8125 28.8159 18.0224 28.8159 18.2812C28.8159 25.0122 23.3593 30.4688 16.6284 30.4688C16.3695 30.4688 16.1596 30.2589 16.1596 30C16.1596 29.7411 16.3695 29.5312 16.6284 29.5312C22.8416 29.5312 27.8784 24.4945 27.8784 18.2812C27.8784 18.0224 28.0882 17.8125 28.3471 17.8125Z" fill="#A2B9C1"/>
<path d="M26.0034 18.2812C26.0034 23.4589 21.806 27.6562 16.6284 27.6562C11.4507 27.6562 7.25336 23.4589 7.25336 18.2812C7.25336 13.1036 11.4507 8.90625 16.6284 8.90625C21.806 8.90625 26.0034 13.1036 26.0034 18.2812Z" fill="#C7D4D8"/>
<path fill-rule="evenodd" clip-rule="evenodd" d="M26.9409 18.2812C26.9409 23.9767 22.3238 28.5938 16.6284 28.5938C10.9329 28.5938 6.31586 23.9767 6.31586 18.2812C6.31586 12.5858 10.9329 7.96875 16.6284 7.96875C22.3238 7.96875 26.9409 12.5858 26.9409 18.2812ZM16.6284 27.6562C21.806 27.6562 26.0034 23.4589 26.0034 18.2812C26.0034 13.1036 21.806 8.90625 16.6284 8.90625C11.4507 8.90625 7.25336 13.1036 7.25336 18.2812C7.25336 23.4589 11.4507 27.6562 16.6284 27.6562Z" fill="#81A5B0"/>
<path fill-rule="evenodd" clip-rule="evenodd" d="M16.6284 26.25C21.0294 26.25 24.5971 22.6823 24.5971 18.2812C24.5971 18.0224 24.807 17.8125 25.0659 17.8125C25.3247 17.8125 25.5346 18.0224 25.5346 18.2812C25.5346 23.2 21.5471 27.1875 16.6284 27.1875C16.3695 27.1875 16.1596 26.9776 16.1596 26.7187C16.1596 26.4599 16.3695 26.25 16.6284 26.25Z" fill="#B5C3C8"/>
<path fill-rule="evenodd" clip-rule="evenodd" d="M16.6284 10.3125C12.2273 10.3125 8.65961 13.8802 8.65961 18.2812C8.65961 18.5401 8.44974 18.75 8.19086 18.75C7.93197 18.75 7.72211 18.5401 7.72211 18.2812C7.72211 13.3625 11.7096 9.375 16.6284 9.375C16.8872 9.375 17.0971 9.58487 17.0971 9.84375C17.0971 10.1026 16.8872 10.3125 16.6284 10.3125Z" fill="#D9EAEF"/>
<path d="M13.5657 22.4255C13.7897 22.2108 14.0557 21.9682 14.3637 21.6975C14.6717 21.4268 14.9657 21.1702 15.2457 20.9275C15.9364 20.3395 16.4777 19.8542 16.8697 19.4715C17.271 19.0888 17.6024 18.6968 17.8637 18.2955C18.125 17.8942 18.2557 17.5068 18.2557 17.1335C18.2557 16.6108 18.1064 16.1815 17.8077 15.8455C17.509 15.5095 17.1264 15.3415 16.6597 15.3415C16.2864 15.3415 15.927 15.4628 15.5817 15.7055C15.2364 15.9388 14.9797 16.2468 14.8117 16.6295L13.2577 15.9295C13.547 15.2668 14.009 14.7255 14.6437 14.3055C15.2877 13.8855 15.9597 13.6755 16.6597 13.6755C17.3224 13.6755 17.9104 13.8248 18.4237 14.1235C18.937 14.4128 19.3384 14.8188 19.6277 15.3415C19.917 15.8642 20.0617 16.4615 20.0617 17.1335C20.0617 17.7962 19.8797 18.4308 19.5157 19.0375C19.1517 19.6442 18.7177 20.1902 18.2137 20.6755C17.7097 21.1515 17.0377 21.7348 16.1977 22.4255H20.2157V23.9935H13.7057L13.5657 22.4255Z" fill="#6D8F9A"/>
</svg>
