<svg width="24" height="24" viewBox="0 0 24 24" fill="none" xmlns="http://www.w3.org/2000/svg">
<path d="M22 11.7998C22 9.5278 21.9983 7.9041 21.8623 6.64844C21.7283 5.41162 21.4733 4.65121 21.0449 4.06152C20.7365 3.63705 20.363 3.26348 19.9385 2.95508C19.3488 2.52672 18.5884 2.2717 17.3516 2.1377C16.0959 2.00165 14.4722 2 12.2002 2H11.7998C9.5278 2 7.9041 2.00165 6.64844 2.1377C5.41162 2.2717 4.65121 2.52672 4.06152 2.95508C3.63705 3.26348 3.26348 3.63705 2.95508 4.06152C2.52672 4.65121 2.2717 5.41162 2.1377 6.64844C2.00165 7.9041 2 9.5278 2 11.7998V12.2002C2 14.4722 2.00165 16.0959 2.1377 17.3516C2.2717 18.5884 2.52672 19.3488 2.95508 19.9385C3.26348 20.363 3.63705 20.7365 4.06152 21.0449C4.65121 21.4733 5.41162 21.7283 6.64844 21.8623C7.9041 21.9983 9.5278 22 11.7998 22H12.2002C14.4722 22 16.0959 21.9983 17.3516 21.8623C18.5884 21.7283 19.3488 21.4733 19.9385 21.0449C20.3629 20.7365 20.7365 20.3629 21.0449 19.9385C21.4733 19.3488 21.7283 18.5884 21.8623 17.3516C21.9983 16.0959 22 14.4722 22 12.2002V11.7998ZM6.11133 19.333V15.667C6.11133 15.1147 6.55904 14.667 7.11133 14.667C7.66351 14.6671 8.11133 15.1148 8.11133 15.667V19.333C8.11133 19.8852 7.66351 20.3329 7.11133 20.333C6.55904 20.333 6.11133 19.8853 6.11133 19.333ZM11 19.333V13.2227C11 12.6704 11.4477 12.2227 12 12.2227C12.5523 12.2227 13 12.6704 13 13.2227V19.333C13 19.8853 12.5523 20.333 12 20.333C11.4477 20.333 11 19.8853 11 19.333ZM15.8887 19.333V10.7773C15.8889 10.2253 16.3366 9.77746 16.8887 9.77734C17.4408 9.77734 17.8884 10.2253 17.8887 10.7773V19.333C17.8887 19.8853 17.441 20.333 16.8887 20.333C16.3365 20.3329 15.8887 19.8852 15.8887 19.333ZM18.0146 4.57031C18.4052 4.17979 19.0392 4.17979 19.4297 4.57031C19.8202 4.96084 19.8202 5.59483 19.4297 5.98535L19.166 6.24805C17.1852 8.22884 14.3586 9.11146 11.6025 8.61035C10.1953 8.35455 8.75798 8.86525 7.82715 9.95117L6.03711 12.04C5.6777 12.4592 5.04622 12.5077 4.62695 12.1484C4.20766 11.789 4.15922 11.1576 4.51855 10.7383L6.30859 8.64941C7.702 7.02389 9.85347 6.26067 11.96 6.64355C14.0703 7.02726 16.2352 6.35071 17.752 4.83398L18.0146 4.57031ZM24 12.2002C24 14.4277 24.001 16.179 23.8506 17.5674C23.6981 18.9743 23.3804 20.1269 22.6631 21.1143C22.2313 21.7085 21.7085 22.2313 21.1143 22.6631C20.1269 23.3804 18.9743 23.6981 17.5674 23.8506C16.179 24.001 14.4277 24 12.2002 24H11.7998C9.57234 24 7.82101 24.001 6.43262 23.8506C5.02572 23.6981 3.87309 23.3804 2.88574 22.6631C2.29148 22.2313 1.76867 21.7085 1.33691 21.1143C0.619614 20.1269 0.30188 18.9743 0.149414 17.5674C-0.00100906 16.179 9.68704e-08 14.4277 1.80171e-07 12.2002V11.7998C9.68704e-08 9.57234 -0.00100906 7.82101 0.149414 6.43262C0.30188 5.02572 0.619613 3.87309 1.33691 2.88574C1.76867 2.29148 2.29148 1.76867 2.88574 1.33691C3.87309 0.619613 5.02572 0.30188 6.43262 0.149414C7.82101 -0.00100906 9.57234 9.68704e-08 11.7998 1.80171e-07H12.2002C14.4277 9.68704e-08 16.179 -0.00100906 17.5674 0.149414C18.9743 0.30188 20.1269 0.619614 21.1143 1.33691C21.7085 1.76867 22.2313 2.29148 22.6631 2.88574C23.3804 3.87309 23.6981 5.02572 23.8506 6.43262C24.001 7.82101 24 9.57234 24 11.7998V12.2002Z" fill="#999999"/>
</svg>
