<svg width="24" height="24" viewBox="0 0 24 24" fill="none" xmlns="http://www.w3.org/2000/svg">
<path d="M12.0001 0C14.0209 0 15.6933 0.178153 16.9815 0.395508C18.1431 0.591487 19.1903 0.723927 19.9932 1.71289C20.8013 2.70823 20.7069 3.84229 20.6563 5.11719C20.5559 7.64515 20.2228 10.6572 19.0255 13.0625C18.4189 14.2809 17.5746 15.3772 16.3985 16.166C15.2158 16.9592 13.7585 17.4004 12.0001 17.4004C10.2416 17.4004 8.78439 16.9593 7.60163 16.166C6.42549 15.3772 5.58122 14.281 4.97468 13.0625C3.77736 10.6572 3.44421 7.64515 3.34382 5.11719C3.29321 3.84235 3.19893 2.7082 4.00691 1.71289C4.80996 0.723852 5.85791 0.591512 7.0196 0.395508C8.30776 0.178189 9.97954 8.28715e-06 12.0001 0ZM12.0001 2C10.0971 2.00001 8.53631 2.16731 7.35163 2.36719C6.0083 2.59384 5.80316 2.67371 5.55964 2.97363C5.32143 3.26713 5.2819 3.52647 5.34187 5.03711C5.44034 7.51744 5.76819 10.167 6.7657 12.1709C7.25661 13.1571 7.89339 13.9532 8.71589 14.5049C9.53169 15.052 10.5908 15.4004 12.0001 15.4004C13.4093 15.4004 14.4685 15.0519 15.2843 14.5049C16.1068 13.9532 16.7445 13.1571 17.2354 12.1709C18.2328 10.167 18.5598 7.51732 18.6583 5.03711C18.7183 3.52622 18.6788 3.26718 18.4405 2.97363C18.197 2.6737 17.992 2.59387 16.6485 2.36719C15.4638 2.16731 13.903 2 12.0001 2Z" fill="#999999"/>
<path d="M22.0003 7.85858V7.7785C22.0003 7.18151 21.999 6.81732 21.968 6.54608C21.94 6.30068 21.8965 6.2359 21.8772 6.20917C21.8579 6.18239 21.81 6.12093 21.5862 6.01678C21.3387 5.90163 20.9934 5.78566 20.427 5.59686L19.384 5.24823L20.0159 3.35175L21.0598 3.6994C21.5825 3.87361 22.0551 4.02893 22.4299 4.20331C22.828 4.38853 23.2082 4.63493 23.5003 5.04022C23.7921 5.44542 23.9046 5.88343 23.9544 6.31952C24.0012 6.73027 24.0003 7.22759 24.0003 7.7785V7.85858C24.0002 8.31217 24.0007 8.72531 23.9661 9.07147C23.9293 9.43984 23.8469 9.8112 23.634 10.173C23.4211 10.5349 23.1365 10.7881 22.8323 10.9992C22.5465 11.1975 22.1848 11.3971 21.7883 11.6174L18.5354 13.424L17.5647 11.676L20.8167 9.86835C21.2475 9.62896 21.5067 9.48397 21.6917 9.35565C21.8583 9.24002 21.8955 9.18381 21.9104 9.15839C21.9255 9.13275 21.9568 9.07306 21.9768 8.87225C21.9992 8.6483 22.0002 8.35138 22.0003 7.85858Z" fill="#999999"/>
<path d="M1.47052e-05 7.85858V7.7785C-2.49108e-07 7.22759 -0.00194789 6.73027 0.0449366 6.31952C0.0947314 5.88336 0.208057 5.44547 0.500015 5.04022C0.792171 4.63487 1.17218 4.38854 1.57033 4.20331C1.94519 4.02892 2.41776 3.87363 2.94044 3.6994L3.98341 3.35175L4.61623 5.24823L3.57228 5.59686C3.00619 5.78556 2.66154 5.90166 2.41408 6.01678C2.1904 6.12084 2.14243 6.18232 2.12306 6.20917C2.1038 6.2359 2.06029 6.3007 2.03224 6.54608C2.00128 6.81732 2 7.18151 2.00001 7.7785V7.85858C2.00003 8.3514 2.00109 8.6483 2.02345 8.87225C2.04355 9.07334 2.07483 9.13281 2.08986 9.15839C2.10481 9.1838 2.14119 9.24012 2.30763 9.35565C2.49252 9.48397 2.75184 9.62901 3.18263 9.86835L6.43556 11.676L5.46388 13.424L2.21193 11.6174C1.81557 11.3972 1.45376 11.1975 1.16798 10.9992C0.86381 10.7881 0.579169 10.5349 0.366226 10.173C0.153291 9.81116 0.0700419 9.43988 0.0332178 9.07147C-0.00137777 8.72531 2.66968e-05 8.31217 1.47052e-05 7.85858Z" fill="#999999"/>
<path d="M11 19.7003V17.5001C11 16.9478 11.4478 16.5001 12 16.5001C12.5523 16.5001 13 16.9478 13 17.5001V19.7003C12.9999 20.2525 12.5523 20.7003 12 20.7003C11.4478 20.7003 11.0001 20.2525 11 19.7003Z" fill="#999999"/>
<path d="M14.3981 19.2501C15.3991 19.2501 16.2613 19.9569 16.4577 20.9385L16.8307 22.8038C16.8894 23.0974 16.8135 23.4022 16.6237 23.6339C16.4338 23.8655 16.1498 24 15.8502 24.0001H8.15004C7.85044 24.0001 7.56654 23.8655 7.3766 23.6339C7.18676 23.4022 7.11083 23.0975 7.16957 22.8038L7.54261 20.9385C7.73893 19.9569 8.60115 19.2501 9.60219 19.2501H14.3981ZM9.60219 21.2501C9.5546 21.2501 9.513 21.2835 9.50355 21.3301L9.36976 22.0001H14.6305L14.4967 21.3301C14.4873 21.2835 14.4457 21.2501 14.3981 21.2501H9.60219Z" fill="#999999"/>
<path d="M18.6002 22.0001C19.1524 22.0001 19.6002 22.4478 19.6002 23.0001C19.6002 23.5523 19.1524 24 18.6002 24.0001H5.40003C4.84774 24.0001 4.40003 23.5523 4.40003 23.0001C4.40003 22.4478 4.84774 22.0001 5.40003 22.0001H18.6002Z" fill="#999999"/>
</svg>
