<svg width="20" height="20" viewBox="0 0 20 20" fill="none" xmlns="http://www.w3.org/2000/svg">
<path fill-rule="evenodd" clip-rule="evenodd" d="M11.0502 1.76013C10.393 1.41329 9.60698 1.41329 8.9498 1.76013L2.69979 5.05875C1.96182 5.44823 1.5 6.21416 1.5 7.04861L1.5 15.8578C1.5 17.1005 2.50736 18.1078 3.75 18.1078H16.25C17.4926 18.1078 18.5 17.1005 18.5 15.8578V7.04861C18.5 6.21416 18.0382 5.44824 17.3002 5.05875L11.0502 1.76013ZM8.24966 0.433557C9.34496 -0.14452 10.655 -0.144518 11.7503 0.433558L18.0003 3.73217C19.2303 4.38132 20 5.65786 20 7.04861V15.8578C20 17.9289 18.3211 19.6078 16.25 19.6078H3.75C1.67893 19.6078 -5.56209e-08 17.9289 0 15.8578L4.30507e-07 7.04861C5.07884e-07 5.65786 0.769692 4.38132 1.99966 3.73217L8.24966 0.433557Z" fill="#999999"/>
<path fill-rule="evenodd" clip-rule="evenodd" d="M9.91957 11.6078H10.0804C10.6146 11.6078 11.0604 11.6078 11.4247 11.6376C11.8046 11.6686 12.1612 11.7357 12.4985 11.9075C13.0159 12.1712 13.4366 12.5919 13.7003 13.1093C13.8721 13.4466 13.9392 13.8033 13.9703 14.1831C14 14.5474 14 14.9932 14 15.5274V18.8578C14 19.272 13.6642 19.6078 13.25 19.6078H6.75C6.33579 19.6078 6 19.272 6 18.8578V15.5274C5.99999 14.9932 5.99998 14.5474 6.02974 14.1831C6.06078 13.8033 6.12789 13.4466 6.29973 13.1093C6.56338 12.5919 6.98408 12.1712 7.50153 11.9075C7.83879 11.7357 8.19545 11.6686 8.57533 11.6376C8.93956 11.6078 9.38541 11.6078 9.91957 11.6078ZM8.69748 13.1326C8.41035 13.156 8.27307 13.1979 8.18251 13.2441C7.94731 13.3639 7.75608 13.5551 7.63624 13.7903C7.5901 13.8809 7.54822 14.0182 7.52476 14.3053C7.50058 14.6012 7.5 14.9854 7.5 15.5578V18.1078H12.5V15.5578C12.5 14.9854 12.4994 14.6012 12.4752 14.3053C12.4518 14.0182 12.4099 13.8809 12.3638 13.7903C12.2439 13.5551 12.0527 13.3639 11.8175 13.2441C11.7269 13.1979 11.5896 13.156 11.3025 13.1326C11.0066 13.1084 10.6224 13.1078 10.05 13.1078H9.95C9.37757 13.1078 8.99336 13.1084 8.69748 13.1326Z" fill="#999999"/>
</svg>
